# xmcd CD database file
# Copyright (C) 1996 Ti Kan
#
# Track frame offsets:
#	150
#	18402
#	36019
#	52990
#	69999
#	77476
#	103334
#	122001
#	126955
#	141930
#	146291
#	154997
#	158705
#	175729
#	195665
#	203906
#	218985
#	235155
#	259902
#	321887
#	330135
# Disc length: 4717 seconds
#
# Revision: 1
# Processed by: cddbd v1.5.1PL0 Copyright (c) Steve Scherf et al.
# Submitted via: CDCOPY 4.900
#
DISCID=25126b15
DTITLE=Daniel Skála - Cimbál Sólo
DYEAR=1900
DGENRE=
TTITLE0=Lístek odvanutý
TTITLE1=Dobrou noc!
TTITLE2=Sonata per Cimbalon - I.Vìta
TTITLE3=Sonata per Cimbalon - II.Vìta
TTITLE4=Sonata per Cimbalon - III.Vìta
TTITLE5=Sonata per Cimbalon - IV.Vìta
TTITLE6=Preludium I.
TTITLE7=Toccatina I.
TTITLE8=Preludium II.
TTITLE9=Toccatina II.
TTITLE10=Preludium III.
TTITLE11=Toccatina III.
TTITLE12=Dinamico
TTITLE13=Aereo
TTITLE14=Fosco
TTITLE15=Sensibile
TTITLE16=Impetuoso
TTITLE17=Janko, Janko zlá novina
TTITLE18=Sonáta pro cimbál sólo
TTITLE19=Preambulum
TTITLE20=Toccata pro cimbal sólo
EXTD=
EXTT0=
EXTT1=
EXTT2=
EXTT3=
EXTT4=
EXTT5=
EXTT6=
EXTT7=
EXTT8=
EXTT9=
EXTT10=
EXTT11=
EXTT12=
EXTT13=
EXTT14=
EXTT15=
EXTT16=
EXTT17=
EXTT18=
EXTT19=
EXTT20=
PLAYORDER=
